<?xml version="1.0" standalone="no"?>
<!DOCTYPE svg PUBLIC "-//W3C//DTD SVG 20010904//EN"
 "http://www.w3.org/TR/2001/REC-SVG-20010904/DTD/svg10.dtd">
<svg version="1.0" xmlns="http://www.w3.org/2000/svg"
 width="250.000000pt" height="250.000000pt" viewBox="0 0 250.000000 250.000000"
 preserveAspectRatio="xMidYMid meet">
<metadata>
Created by potrace 1.11, written by Peter Selinger 2001-2013
</metadata>
<g transform="translate(0.000000,250.000000) scale(0.100000,-0.100000)"
fill="#000000" stroke="none">
<path d="M65 2491 c-11 -5 -29 -19 -40 -31 -20 -22 -20 -38 -23 -1184 -2 -823
0 -1172 8 -1199 7 -25 22 -44 43 -57 31 -19 62 -20 1190 -20 1278 0 1209 -4
1242 61 22 42 22 2323 0 2375 -28 68 41 64 -1242 63 -637 0 -1167 -4 -1178 -8z"/>
</g>
</svg>
